<svg aria-hidden="true" style="position: absolute; width: 0; height: 0; overflow: hidden;" version="1.1" xmlns="http://www.w3.org/2000/svg" xmlns:xlink="http://www.w3.org/1999/xlink">
<defs>
<symbol id="icon-arrow" viewBox="0 0 32 32">
<path d="M0 9.358l3.772-4.025 12.233 13.282 12.223-13.282 3.772 4.025-15.995 17.308-16.005-17.308z"></path>
</symbol>
<symbol id="icon-burger-menu" viewBox="0 0 32 32">
<path d="M0 0h32v5.333h-32v-5.333zM0 13.333h32v5.333h-32v-5.333zM32 26.667h-32v5.333h32v-5.333z"></path>
</symbol>
<symbol id="icon-card-arrow-play" viewBox="0 0 32 32">
<path d="M28.667 16l-25.333 16v-32l25.333 16z"></path>
</symbol>
<symbol id="icon-card-burger" viewBox="0 0 32 32">
<path d="M3.992 26.661h-0.003c0.041 1.055 0.356 1.305 1.272 1.332 1.655 0.017 20.685 0 21.464-0.012 0.905-0.029 1.227-0.359 1.28-1.257 0 0-15.179 0.048-24.013-0.063zM9.047 21.339l-5.039-0.011c-0.78 0.011-1.307 0.604-1.34 1.263-0.035 0.697 0.472 1.377 1.34 1.404h24.011c0.86-0.045 1.347-0.719 1.313-1.404-0.036-0.653-0.584-1.227-1.332-1.257-1.733-0.021-8.547 0.004-8.739 0.005-0.696 0.004-1.317 0.369-1.728 0.612-1.187 0.696-2.116 1.399-3.536 1.384-1.579-0.016-2.429-0.735-3.427-1.364-0.385-0.243-0.84-0.636-1.524-0.632zM24.029 17.659c-0.904 0-1.724-0.409-2.449-0.771-1.493-0.743-1.617-0.744-3.111 0-0.724 0.361-1.545 0.771-2.451 0.771-0.904 0-1.724-0.409-2.449-0.771-1.489-0.743-1.619-0.744-3.109 0-0.725 0.361-1.545 0.771-2.451 0.771-0.903 0-1.725-0.409-2.449-0.771-1.336-0.665-1.963-1.008-3.936 0.553-0.191 0.151-0.405 0.219-0.616 0.219-0.52 0-1.008-0.415-1.008-1 0-0.292 0.128-0.583 0.376-0.779 2.773-2.215 4.319-1.659 6.079-0.78 0.579 0.288 1.124 0.56 1.555 0.56 0.432 0 0.979-0.272 1.555-0.56 2.057-1.025 2.827-1.035 4.901 0 0.577 0.288 1.124 0.56 1.553 0.56 0.432 0 0.979-0.272 1.555-0.56 2.057-1.025 2.825-1.035 4.901 0 0.58 0.288 1.124 0.56 1.555 0.56s0.976-0.272 1.556-0.56c1.735-0.865 3.299-1.453 6.048 0.787 0.241 0.197 0.367 0.484 0.367 0.772 0 0.549-0.444 0.997-1.001 0.997-0.221 0-0.445-0.073-0.633-0.224-1.916-1.556-2.551-1.211-3.885-0.545-0.725 0.361-1.547 0.771-2.451 0.771zM30.667 13.329h-29.333c0.052-7.188 6.439-11.996 14.804-11.996 7.537 0 14.475 4.459 14.529 11.996zM15.819 3.996c-4.861 0.068-9.759 2.107-11.369 6.641l-0.009 0.025h23.12c-1.585-4.651-6.799-6.684-11.741-6.667zM12.667 7.996c0.368 0 0.667 0.299 0.667 0.667 0 0.367-0.299 0.667-0.667 0.667s-0.667-0.3-0.667-0.667c0-0.368 0.299-0.667 0.667-0.667zM19.333 7.996c0.368 0 0.667 0.299 0.667 0.667 0 0.367-0.299 0.667-0.667 0.667-0.369 0-0.667-0.3-0.667-0.667 0-0.368 0.297-0.667 0.667-0.667zM24.667 7.996c0.368 0 0.667 0.299 0.667 0.667 0 0.367-0.299 0.667-0.667 0.667-0.369 0-0.667-0.3-0.667-0.667 0-0.368 0.297-0.667 0.667-0.667zM8.667 7.996c0.368 0 0.667 0.299 0.667 0.667 0 0.367-0.299 0.667-0.667 0.667s-0.667-0.3-0.667-0.667c0-0.368 0.299-0.667 0.667-0.667zM15.333 6.663c0.368 0 0.667 0.299 0.667 0.667 0 0.367-0.299 0.667-0.667 0.667s-0.667-0.3-0.667-0.667c0-0.368 0.299-0.667 0.667-0.667zM22 6.663c0.368 0 0.667 0.299 0.667 0.667 0 0.367-0.299 0.667-0.667 0.667-0.369 0-0.667-0.3-0.667-0.667 0-0.368 0.297-0.667 0.667-0.667zM11.333 5.329c0.368 0 0.667 0.299 0.667 0.667 0 0.367-0.299 0.667-0.667 0.667s-0.667-0.3-0.667-0.667c0-0.368 0.299-0.667 0.667-0.667zM18 5.329c0.368 0 0.667 0.299 0.667 0.667 0 0.367-0.299 0.667-0.667 0.667-0.369 0-0.667-0.3-0.667-0.667 0-0.368 0.297-0.667 0.667-0.667zM3.897 18.663c0.231-0.003 5.037 0.007 5.436 0.009 1.924 0.012 3.229 2.229 4.677 2.221 1.291-0.007 3.045-2.219 4.953-2.221 0.239-0.001 8.252-0.021 9.139-0.009 2.207 0.081 3.791 1.8 3.892 3.795 0.064 1.241-0.451 2.416-1.375 3.224 0.368 3.111-1.232 4.875-3.828 4.967-0.8 0.012-19.911 0.028-21.584 0.012-2.891-0.091-4.148-2.065-3.84-4.991-0.92-0.808-1.427-1.98-1.363-3.212 0.101-1.995 1.685-3.713 3.892-3.795z"></path>
</symbol>
<symbol id="icon-card-calendar" viewBox="0 0 32 32">
<path d="M32 0.444h-32v31.111h18.919c4.217 0 13.081-9.77 13.081-13.004v-18.107zM18.667 16.676h-5.333v-5.411h5.333v5.411zM26.667 11.266h-5.333v5.411h5.333v-5.411zM5.333 19.382h5.333v5.411h-5.333v-5.411zM18.667 19.382h-5.333v5.411h5.333v-5.411zM5.333 11.266h5.333v5.411h-5.333v-5.411zM2.667 8.56h26.667v8.85c0 5.555-8 3.323-8 3.323s2.024 8.116-3.517 8.116h-15.149v-20.29z"></path>
</symbol>
<symbol id="icon-card-message" viewBox="0 0 32 32">
<path d="M15.999 1.333c-8.45 0-15.999 5.635-15.999 13.343 0 2.733 0.984 5.417 2.729 7.5 0.073 2.44-1.364 5.941-2.657 8.491 3.469-0.627 8.401-2.011 10.637-3.381 1.891 0.46 3.7 0.671 5.412 0.671 9.445 0 15.879-6.449 15.879-13.281-0.001-7.748-7.602-13.341-16.001-13.341zM15.999 4c7.352 0 13.333 4.789 13.333 10.676 0 6.556-6.86 10.615-13.213 10.615-2.388 0-4.216-0.452-5.543-0.781-0.108-0.027-0.213-0.053-0.315-0.078-0.082 0.050-0.162 0.099-0.24 0.148l-0.001 0.001c-1.2 0.74-2.105 1.299-5.455 2.278 0.713-1.831 0.964-3.664 0.803-5.687l-0.022-0.026c-1.116-1.332-2.678-3.195-2.678-6.47-0.001-5.887 5.98-10.676 13.331-10.676zM9.333 16.667c1.105 0 2-0.895 2-2s-0.895-2-2-2c-1.104 0-2 0.895-2 2s0.896 2 2 2zM15.999 12.667c-1.104 0-2 0.895-2 2s0.896 2 2 2c1.105 0 2-0.895 2-2s-0.895-2-2-2zM20.666 14.667c0-1.105 0.896-2 2-2 1.105 0 2 0.895 2 2s-0.895 2-2 2c-1.104 0-2-0.895-2-2z"></path>
</symbol>
<symbol id="icon-card-salute" viewBox="0 0 32 32">
<path d="M2.139 32c2.471-3.712 10.196-10.947 18.559-12.659l0.7 4.368c-5.031 0.352-12.013 3.364-19.259 8.291zM0 30.667c2.716-3.537 8.017-9.208 8.301-20.123l-4.361 0.748c0.557 6.517-2.061 14.168-3.94 19.375zM27.769 15.436l1.069 3.2 3.161 1.177-2.713 2.005-0.143 3.371-2.747-1.961-3.249 0.907 1.017-3.217-1.867-2.812 3.375-0.027 2.096-2.643zM11.888 20.339h-0.024c-0.357 0-0.653-0.284-0.665-0.644-0.131-3.836 0.681-6.493 5.064-6.987 2.604-0.292 2.705-1.488 2.847-3.143 0.132-1.561 0.313-3.7 3.649-3.945 1.64-0.12 2.544-0.409 3.023-0.967 0.543-0.633 0.704-1.809 0.537-3.931-0.029-0.367 0.245-0.688 0.612-0.717 0.339-0.025 0.688 0.245 0.716 0.613 0.201 2.541-0.047 3.963-0.853 4.904-0.741 0.863-1.881 1.276-3.937 1.427-2.201 0.163-2.283 1.128-2.419 2.728-0.141 1.663-0.335 3.941-4.027 4.356-3.107 0.349-4.015 1.663-3.88 5.616 0.013 0.368-0.276 0.676-0.643 0.689zM28 8c1.472 0 2.667 1.195 2.667 2.667s-1.195 2.667-2.667 2.667c-1.472 0-2.667-1.195-2.667-2.667s1.195-2.667 2.667-2.667zM9.713 2.589l-3.375 0.023-2.135-2.612-1.021 3.216-3.145 1.224 2.744 1.964 0.192 3.369 2.716-2.001 3.263 0.857-1.064-3.201 1.825-2.839zM14.667 2.667c1.472 0 2.667 1.195 2.667 2.667s-1.195 2.667-2.667 2.667c-1.472 0-2.667-1.195-2.667-2.667s1.195-2.667 2.667-2.667z"></path>
</symbol>
<symbol id="icon-card-star" viewBox="0 0 32 32">
<path d="M12.223 12.432l3.777-11.543 3.777 11.543h12.223l-9.889 7.135 3.777 11.543-9.888-7.134-9.889 7.134 3.777-11.543-9.888-7.135h12.223zM17.839 15.080l-1.839-5.622-1.84 5.622h-5.953l4.816 3.476-1.839 5.622 4.816-3.476 4.815 3.476-1.839-5.622 4.816-3.476h-5.953z"></path>
</symbol>
<symbol id="icon-card-stars" viewBox="0 0 32 32">
<path d="M22.4 12.9l0.734 1.514 1.666 0.23-1.213 1.166 0.296 1.656-1.483-0.793-1.483 0.793 0.296-1.656-1.213-1.166 1.666-0.23 0.734-1.514z"></path>
<path d="M16 12.9l0.734 1.514 1.666 0.23-1.213 1.166 0.296 1.656-1.483-0.793-1.483 0.793 0.296-1.656-1.213-1.166 1.666-0.23 0.734-1.514z"></path>
<path d="M9.6 12.9l0.734 1.514 1.666 0.23-1.213 1.166 0.296 1.656-1.483-0.793-1.483 0.793 0.296-1.656-1.213-1.166 1.666-0.23 0.734-1.514z"></path>
<path d="M3.2 12.9l0.734 1.514 1.666 0.23-1.213 1.166 0.296 1.656-1.483-0.793-1.483 0.793 0.296-1.656-1.213-1.166 1.666-0.23 0.734-1.514z"></path>
<path d="M28.066 14.414l0.734-1.514 0.734 1.514 1.666 0.23-1.213 1.165 0.296 1.656-1.483-0.793-1.483 0.793 0.296-1.656-1.213-1.166 1.666-0.23zM29.267 14.781l-0.467-0.963-0.467 0.963-1.061 0.147 0.772 0.742-0.188 1.054 0.944-0.505 0.944 0.505-0.188-1.054 0.772-0.742-1.061-0.146z"></path>
</symbol>
<symbol id="icon-card-wifi" viewBox="0 0 32 32">
<path d="M29.993 14.135c-3.424-4.364-8.421-7.135-13.993-7.135s-10.569 2.771-13.993 7.135l-2.007-1.988c3.913-4.985 9.623-8.147 16-8.147s12.087 3.161 16 8.147l-2.007 1.988zM3.999 16.111l2.007 1.985c2.447-3.117 6.016-5.096 9.995-5.096s7.548 1.979 9.995 5.096l2.005-1.985c-2.933-3.739-7.216-6.111-12-6.111s-9.067 2.371-12.001 6.111zM21.997 22.057c-1.468-1.869-3.609-3.057-5.997-3.057s-4.529 1.188-5.997 3.057l-2.003-1.984c1.956-2.492 4.811-4.073 8-4.073s6.044 1.581 8 4.073l-2.003 1.984zM16 22c-1.595 0-3.011 0.803-3.987 2.048l3.987 3.952 3.987-3.951c-0.976-1.247-2.392-2.049-3.987-2.049z"></path>
</symbol>
<symbol id="icon-card-write" viewBox="0 0 32 32">
<path d="M32 8.792l-8.812 10.333-4.015-3.564 8.827-10.228 4 3.459zM18.301 16.569l4.020 3.569-4.655 1.195 0.624-4.752 0.011-0.012zM5.333 20h9.84l-0.179 1.333h-9.661v-1.333zM28 24v-6.377l-2.667 3.203v2.508c0 0.368-0.299 0.667-0.667 0.667h-21.333c-0.368 0-0.667-0.299-0.667-0.667v-6h12.863l0.263-1.959 1.752-2.041h-14.877v-2c0-0.368 0.299-0.667 0.667-0.667h16.501l2.289-2.667h-19.457c-1.472 0-2.667 1.195-2.667 2.667v13.333c0 1.472 1.195 2.667 2.667 2.667h22.667c1.472 0 2.667-1.195 2.667-2.667z"></path>
</symbol>
<symbol id="icon-circle" viewBox="0 0 32 32">
<path stroke-linejoin="miter" stroke-linecap="butt" stroke-miterlimit="4" stroke-width="1.5059" d="M31.247 16c0 8.421-6.826 15.247-15.247 15.247s-15.247-6.826-15.247-15.247c0-8.421 6.826-15.247 15.247-15.247s15.247 6.826 15.247 15.247z"></path>
</symbol>
<symbol id="icon-facebook" viewBox="0 0 32 32">
<path d="M11.333 10.667h-5.333v5.333h5.333v16h8v-16h4.853l0.48-5.333h-5.333v-2.221c0-1.275 0.256-1.779 1.488-1.779h3.845v-6.667h-6.411c-4.795 0-6.923 2.112-6.923 6.155v4.512z"></path>
</symbol>
<symbol id="icon-instagram" viewBox="0 0 32 32">
<path d="M16 0c-4.347 0-4.888 0.019-6.597 0.099-5.813 0.267-9.040 3.491-9.307 9.304-0.077 1.709-0.096 2.253-0.096 6.597 0 4.347 0.019 4.891 0.096 6.597 0.267 5.811 3.493 9.040 9.307 9.307 1.709 0.077 2.251 0.096 6.597 0.096s4.891-0.019 6.6-0.096c5.803-0.267 9.043-3.491 9.304-9.307 0.077-1.707 0.096-2.251 0.096-6.597 0-4.344-0.019-4.888-0.096-6.597-0.261-5.805-3.491-9.040-9.304-9.304-1.709-0.080-2.253-0.099-6.6-0.099zM16 2.885c4.272 0 4.779 0.016 6.467 0.093 4.339 0.197 6.36 2.253 6.56 6.557 0.075 1.688 0.091 2.192 0.091 6.464s-0.016 4.779-0.091 6.464c-0.2 4.301-2.219 6.363-6.56 6.56-1.688 0.075-2.192 0.093-6.467 0.093-4.272 0-4.779-0.016-6.464-0.093-4.347-0.2-6.36-2.264-6.56-6.56-0.075-1.685-0.093-2.192-0.093-6.464s0.019-4.779 0.093-6.464c0.197-4.307 2.219-6.363 6.56-6.56 1.685-0.077 2.192-0.091 6.464-0.091zM7.784 16c0-4.539 3.68-8.216 8.216-8.216s8.216 3.68 8.216 8.216c0 4.539-3.68 8.216-8.216 8.216s-8.216-3.677-8.216-8.216zM16 21.333c-2.947 0-5.333-2.387-5.333-5.333 0-2.944 2.387-5.333 5.333-5.333 2.944 0 5.336 2.387 5.336 5.333s-2.392 5.333-5.336 5.333zM22.619 7.461c0-1.061 0.861-1.92 1.92-1.92 1.064 0 1.923 0.859 1.923 1.92s-0.861 1.92-1.923 1.92c-1.061 0-1.92-0.861-1.92-1.92z"></path>
</symbol>
<symbol id="icon-send-message" viewBox="0 0 32 32">
<path d="M0 16l14.667 4.133 9.333-10.8-10.875 7.563-5.749-1.603 20.483-10.24-5.299 19.427-5-4.452-2.893 3.9v-1.025l-2.667-0.747v9.844l5.964-8.041 6.036 5.375 8-29.333-32 16z"></path>
</symbol>
<symbol id="icon-twitter" viewBox="0 0 32 32">
<path d="M32 6.080c-1.176 0.523-2.443 0.875-3.771 1.035 1.357-0.813 2.395-2.099 2.888-3.632-1.269 0.752-2.675 1.299-4.171 1.592-1.195-1.277-2.904-2.075-4.789-2.075-4.24 0-7.355 3.955-6.397 8.061-5.453-0.275-10.293-2.888-13.531-6.859-1.72 2.949-0.891 6.811 2.032 8.765-1.075-0.035-2.085-0.331-2.971-0.821-0.072 3.040 2.109 5.885 5.267 6.52-0.923 0.251-1.936 0.309-2.965 0.112 0.835 2.608 3.264 4.504 6.133 4.557-2.765 2.165-6.24 3.133-9.725 2.723 2.907 1.864 6.355 2.949 10.061 2.949 12.192 0 19.077-10.296 18.661-19.531 1.285-0.923 2.397-2.080 3.277-3.397z"></path>
</symbol>
<symbol id="icon-percent-42" viewBox="0 0 32 32">
<path fill="none" stroke="#3c5b7e" style="stroke: var(--color1, #3c5b7e)" stroke-linejoin="miter" stroke-linecap="butt" stroke-miterlimit="4" stroke-width="1.5059" d="M31.247 16c0 8.421-6.826 15.247-15.247 15.247s-15.247-6.826-15.247-15.247c0-8.421 6.826-15.247 15.247-15.247s15.247 6.826 15.247 15.247z"></path>
<path fill="#c8ff8c" style="fill: var(--color2, #c8ff8c)" d="M23.686 30.037c4.955-2.719 8.314-7.985 8.314-14.037 0-8.837-7.163-16-16-16v1.506c8.005 0 14.494 6.489 14.494 14.494 0 5.352-2.925 10.188-7.533 12.716l0.725 1.32z"></path>
</symbol>
<symbol id="icon-percent-50" viewBox="0 0 32 32">
<path fill="none" stroke="#3c5b7e" style="stroke: var(--color1, #3c5b7e)" stroke-linejoin="miter" stroke-linecap="butt" stroke-miterlimit="4" stroke-width="1.5059" d="M31.247 16c0 8.421-6.826 15.247-15.247 15.247s-15.247-6.826-15.247-15.247c0-8.421 6.826-15.247 15.247-15.247s15.247 6.826 15.247 15.247z"></path>
<path fill="#c8ff8c" style="fill: var(--color2, #c8ff8c)" d="M16.048 32c8.837 0 16-7.163 16-16s-7.163-16-16-16v1.506c8.005 0 14.494 6.489 14.494 14.494s-6.489 14.494-14.494 14.494c-0.022 0-0.022 0-0.043 0l-0.004 1.506c0.016 0 0.032 0 0.048 0z"></path>
</symbol>
<symbol id="icon-percent-73" viewBox="0 0 32 32">
<path fill="none" stroke="#3c5b7e" style="stroke: var(--color1, #3c5b7e)" stroke-linejoin="miter" stroke-linecap="butt" stroke-miterlimit="4" stroke-width="1.5059" d="M31.247 16c0 8.421-6.826 15.247-15.247 15.247s-15.247-6.826-15.247-15.247c0-8.421 6.826-15.247 15.247-15.247s15.247 6.826 15.247 15.247z"></path>
<path fill="#c8ff8c" style="fill: var(--color2, #c8ff8c)" d="M16.072 32c8.837 0 16-7.163 16-16s-7.163-16-16-16v1.506c8.005 0 14.494 6.489 14.494 14.494s-6.489 14.494-14.494 14.494c-7.35 0-13.514-5.501-14.388-12.733l-1.495 0.181c0.958 7.921 7.704 14.058 15.883 14.058z"></path>
</symbol>
<symbol id="icon-percent-99" viewBox="0 0 32 32">
<path fill="none" stroke="#3c5b7e" style="stroke: var(--color1, #3c5b7e)" stroke-linejoin="miter" stroke-linecap="butt" stroke-miterlimit="4" stroke-width="1.5059" d="M31.247 16c0 8.421-6.826 15.247-15.247 15.247s-15.247-6.826-15.247-15.247c0-8.421 6.826-15.247 15.247-15.247s15.247 6.826 15.247 15.247z"></path>
<path fill="#c8ff8c" style="fill: var(--color2, #c8ff8c)" d="M0 16c0 8.837 7.163 16 16 16s16-7.163 16-16c0-8.837-7.163-16-16-16v1.506c8.005 0 14.494 6.489 14.494 14.494s-6.489 14.494-14.494 14.494c-8.005 0-14.494-6.489-14.494-14.494 0-7.697 6.017-14.041 13.667-14.471l-0.085-1.504c-8.412 0.473-15.088 7.444-15.088 15.974z"></path>
</symbol>
<symbol id="icon-tell" viewBox="0 0 28 32">
<path d="M3.348 1.763l3.677-1.763 5.225 10.52-3.523 1.788c-0.696 1.679 2.792 8.385 4.263 8.496 0.116-0.077 3.453-1.771 3.453-1.771l5.314 10.576c0 0-3.574 1.805-3.69 1.861-10.164 4.788-24.697-24.344-14.719-29.708zM5.844 3.461l-1.323 0.672c-6.845 3.683 5.401 28.247 12.475 24.915l1.256-0.632-2.936-5.844-1.327 0.667c-4.090 2.063-10.682-10.959-6.536-13.251l1.302-0.663-2.91-5.864zM19.742 14.82l-3.772-1.16 1.124-3.888c0.965 0.296 1.822 0.973 2.338 1.959 0.517 0.984 0.599 2.093 0.31 3.089zM18.303 5.581c2.005 0.616 3.783 2.021 4.856 4.068 1.075 2.048 1.241 4.351 0.644 6.417l-2.321-0.713c0.42-1.455 0.301-3.075-0.455-4.516-0.754-1.441-2.006-2.429-3.417-2.861l0.693-2.395zM26.939 7.541c-1.637-3.125-4.35-5.268-7.407-6.208l-0.71 2.455c2.45 0.752 4.622 2.469 5.936 4.972 1.311 2.501 1.515 5.316 0.786 7.843l2.379 0.731c0.912-3.155 0.657-6.668-0.984-9.792z"></path>
</symbol>
<symbol id="icon-email" viewBox="0 0 41 32">
<path d="M41.143 0v32h-41.143v-32h41.143zM37.714 3.556l-8.568 10.684 8.568 14.204v-24.889zM3.429 3.556v24.889h34.286l-11.187-11.765-5.906 6.192-5.859-6.267-11.333 11.84 8.659-14.222-8.659-10.667zM3.429 3.556l17.193 13.237 17.093-13.237h-34.286z"></path>
</symbol>
<symbol id="icon-maps" viewBox="0 0 27 32">
<path d="M13.333 0c-7.363 0-13.333 5.86-13.333 13.087 0 7.26 5.707 12.247 13.088 18.699l0.245 0.214 0.245-0.214c7.382-6.452 13.088-11.439 13.088-18.699 0-7.227-5.971-13.087-13.333-13.087zM13.333 24c-5.892 0-10.667-4.776-10.667-10.667s4.775-10.667 10.667-10.667c5.892 0 10.667 4.776 10.667 10.667s-4.775 10.667-10.667 10.667zM12.389 18.723l7.611-7.503-1.885-1.887-5.727 5.617-3.055-2.951-1.885 1.887 4.941 4.836z"></path>
</symbol>
</defs>
</svg>
